<svg width="82" height="82" xmlns="http://www.w3.org/2000/svg" xmlns:xlink="http://www.w3.org/1999/xlink" xml:space="preserve" overflow="hidden"><defs><clipPath id="clip0"><rect x="843" y="547" width="82" height="82"/></clipPath></defs><g clip-path="url(#clip0)" transform="translate(-843 -547)"><path d="M843 601.998 843 603.418C843 606.928 845.85 609.777 849.369 609.777L918.641 609.777C922.15 609.777 925 606.928 925 603.418L925 601.998 843 601.998Z" fill="#1F4573"/><path d="M861.568 625.135 906.422 625.135 906.422 628.995 861.568 628.995Z" fill="#1F4573"/><path d="M924.99 601.998 843.01 601.998 843.01 554.424C843.01 550.335 846.34 547.005 850.429 547.005L917.571 547.005C921.66 547.005 924.99 550.335 924.99 554.424L924.99 601.998ZM845.51 599.499 922.49 599.499 922.49 554.424C922.49 551.714 920.281 549.505 917.571 549.505L850.429 549.505C847.719 549.505 845.51 551.714 845.51 554.424L845.51 599.499Z" fill="#1F4573"/><path d="M859.678 586.94C859.238 586.5 858.508 586.5 858.068 586.94L854.459 590.55C853.419 591.59 853.419 593.279 854.459 594.319L854.459 594.319C855.498 595.359 857.188 595.359 858.228 594.319L861.838 590.71C862.278 590.27 862.278 589.54 861.838 589.1L859.678 586.94Z" fill="#1F4573"/><path d="M890.734 585.92C883.035 593.619 870.547 593.619 862.848 585.92 855.148 578.221 855.148 565.733 862.848 558.034 870.547 550.335 883.035 550.335 890.734 558.034 898.433 565.733 898.433 578.221 890.734 585.92ZM887.655 582.841C893.644 576.851 893.644 567.103 887.655 561.113 881.665 555.124 871.917 555.124 865.927 561.113 859.938 567.103 859.938 576.851 865.927 582.841 871.917 588.83 881.665 588.83 887.655 582.841Z" fill="#00B2DD"/><path d="M874.636 574.132C873.446 572.942 873.446 571.002 874.636 569.812 875.826 568.622 877.766 568.622 878.956 569.812 880.145 571.002 880.145 572.942 878.956 574.132 877.766 575.322 875.826 575.322 874.636 574.132Z" fill="#00B2DD"/><path d="M850.569 574.132C849.379 572.942 849.379 571.002 850.569 569.812 851.759 568.622 853.699 568.622 854.889 569.812 856.078 571.002 856.078 572.942 854.889 574.132 853.699 575.322 851.759 575.322 850.569 574.132Z" fill="#00B2DD"/><path d="M913.711 557.464C912.522 556.274 912.522 554.334 913.711 553.144 914.901 551.954 916.841 551.954 918.031 553.144 919.221 554.334 919.221 556.274 918.031 557.464 916.841 558.654 914.901 558.654 913.711 557.464Z" fill="#00B2DD"/><path d="M862.008 584.99 859.868 587.13 861.638 588.9 863.777 586.76C863.468 586.48 863.148 586.22 862.848 585.92 862.548 585.62 862.288 585.3 862.008 584.99Z" fill="#1F4573"/><path d="M893.314 557.914 894.744 556.564 913.101 556.564C912.742 555.774 912.742 554.854 913.101 554.064L893.744 554.064 891.584 556.114C891.774 556.284 891.964 556.444 892.144 556.624 892.554 557.034 892.934 557.474 893.314 557.914Z" fill="#1F4573"/><path d="M878.946 569.822C879.256 570.132 879.476 570.492 879.626 570.872L887.235 563.663C886.925 563.273 886.595 562.893 886.235 562.533 885.995 562.293 885.755 562.083 885.505 561.863L877.846 569.122C878.246 569.272 878.626 569.502 878.956 569.822Z" fill="#1F4573"/><path d="M874.016 570.722 863.497 570.722C863.417 571.552 863.417 572.392 863.497 573.222L874.016 573.222C873.656 572.432 873.656 571.512 874.016 570.722Z" fill="#1F4573"/><path d="M894.554 585.55 894.554 585.55C893.104 585.55 891.934 586.73 891.934 588.17L891.934 595.079 897.183 595.079 897.183 588.17C897.183 586.72 896.014 585.55 894.554 585.55Z" fill="#1F4573"/><path d="M901.803 578.151 901.803 578.151C900.353 578.151 899.183 579.331 899.183 580.771L899.183 595.079 904.432 595.079 904.432 580.771C904.432 579.321 903.263 578.151 901.813 578.151Z" fill="#1F4573"/><path d="M909.052 582.061 909.052 582.061C907.602 582.061 906.432 583.241 906.432 584.68L906.432 595.079 911.682 595.079 911.682 584.68C911.682 583.231 910.512 582.061 909.062 582.061Z" fill="#1F4573"/><path d="M916.301 570.662 916.301 570.662C914.851 570.662 913.681 571.842 913.681 573.282L913.681 595.079 918.931 595.079 918.931 573.282C918.931 571.832 917.761 570.662 916.311 570.662Z" fill="#1F4573"/><path d="M892.714 616.667C892.714 614.737 892.714 613.307 892.714 612.287L887.915 612.287 887.915 614.717C887.915 616.876 886.165 618.636 884.005 618.636 881.845 618.636 880.095 616.886 880.095 614.717L880.095 612.287 875.296 612.287 875.296 616.667C875.296 621.346 871.507 625.135 866.827 625.135L901.183 625.135C896.503 625.135 892.714 621.346 892.714 616.667Z" fill="#1F4573"/></g></svg>