<svg width="38" height="35" xmlns="http://www.w3.org/2000/svg" xmlns:xlink="http://www.w3.org/1999/xlink" xml:space="preserve" overflow="hidden"><defs><clipPath id="clip0"><rect x="330" y="597" width="38" height="35"/></clipPath></defs><g clip-path="url(#clip0)" transform="translate(-330 -597)"><path d="M14.6666 29.6985C13.6847 29.6985 12.0408 29.4924 11.5085 28.2997 9.82872 23.3463 7.85705 18.4944 5.56066 13.7549 5.23595 12.6387 5.74643 11.8207 6.23662 11.5444 6.5707 11.357 7.63381 10.8356 8.89362 11.816 10.8356 13.3225 12.6715 15.1006 14.434 17.0566 17.6686 12.0658 24.7139 4.56155 33.5966 0.376227 34.7643-0.174844 36.124-0.262266 36.9686 1.08185 37.5977 2.08408 36.7313 3.6124 36.1693 3.99175 22.3347 13.3209 18.3289 27.7221 18.2806 27.8611 17.9293 28.8773 15.9748 29.5939 14.9054 29.6876 14.8258 29.6938 14.7462 29.6985 14.6666 29.6985Z" fill="#70B20D" transform="matrix(1.02185 0 0 1 330 597)"/><path d="M33.3421 35 2.35259 35C1.05531 35 0 33.9447 0 32.6474L0 2.81936C0 1.52208 1.05531 0.466771 2.35259 0.466771L25.7739 0.466771C26.4248 0.466771 26.9525 0.994425 26.9525 1.64541 26.9525 2.29639 26.4248 2.82404 25.7739 2.82404L2.35259 2.82404 2.35727 32.649 33.3421 32.6443 33.3374 9.01227C33.3374 8.36128 33.8651 7.83363 34.5161 7.83363 35.167 7.83363 35.6947 8.36128 35.6947 9.01227L35.6947 32.6474C35.6947 33.9447 34.6394 35 33.3421 35Z" fill="#70B20D" transform="matrix(1.02185 0 0 1 330 597)"/></g></svg>