<svg width="82" height="82" xmlns="http://www.w3.org/2000/svg" xmlns:xlink="http://www.w3.org/1999/xlink" xml:space="preserve" overflow="hidden"><defs><clipPath id="clip0"><rect x="249" y="549" width="82" height="82"/></clipPath></defs><g clip-path="url(#clip0)" transform="translate(-249 -549)"><path d="M310.27 602.57C309.23 602.57 308.85 601.11 308.28 599.31 307.8 597.82 307.21 595.95 305.99 594.12 305.05 592.7 303.32 591.19 301.31 589.43 296.07 584.85 289.55 579.15 289.55 569.73 289.55 558.3 298.84 549 310.27 549 321.7 549 331 558.3 331 569.73 331 579.16 324.48 584.85 319.24 589.43 317.23 591.18 315.5 592.7 314.56 594.12 313.34 595.95 312.75 597.82 312.27 599.31 311.69 601.11 311.31 602.57 310.28 602.57ZM310.27 559.14C304.42 559.14 299.68 563.88 299.68 569.73 299.68 575.58 304.42 580.32 310.27 580.32 316.12 580.32 320.86 575.58 320.86 569.73 320.86 563.88 316.12 559.14 310.27 559.14Z" fill="#00B2DD"/><path d="M292.39 583.27 289.54 583.27 289.54 585.27 294.05 585.27C293.48 584.63 292.92 583.97 292.39 583.27Z" fill="#1F4573"/><path d="M328.16 583.27C327.63 583.97 327.07 584.63 326.5 585.27L329 585.27 329 629 289.54 629 289.54 631 331 631 331 583.27 328.16 583.27Z" fill="#1F4573"/><path d="M249 583.27 249 631 268.27 619.16 268.27 571.43 249 583.27Z" fill="#1F4573"/><path d="M289.54 583.27 270.27 571.43 270.27 619.16 289.54 631 289.54 583.27Z" fill="#1F4573"/><path d="M312.84 606.89C312.84 608.31 311.69 609.45 310.28 609.45 308.87 609.45 307.72 608.3 307.72 606.89 307.72 605.48 308.87 604.33 310.28 604.33 311.69 604.33 312.84 605.48 312.84 606.89Z" fill="#1F4573"/></g></svg>