<svg width="80" height="82" xmlns="http://www.w3.org/2000/svg" xmlns:xlink="http://www.w3.org/1999/xlink" xml:space="preserve" overflow="hidden"><defs><clipPath id="clip0"><rect x="529" y="68" width="80" height="82"/></clipPath></defs><g clip-path="url(#clip0)" transform="translate(-529 -68)"><path d="M557.208 105.164 580.792 105.164 580.792 107.741 557.208 107.741Z" fill="#00B2DD"/><path d="M557.208 110.259 580.792 110.259 580.792 112.836 557.208 112.836Z" fill="#00B2DD"/><path d="M563.251 100.08 580.792 100.08 580.792 102.657 563.251 102.657Z" fill="#00B2DD"/><path d="M557.208 115.343 580.792 115.343 580.792 117.92 557.208 117.92Z" fill="#00B2DD"/><path d="M607.821 115.643C606.493 115.023 605.164 114.414 603.826 113.795 602.447 113.155 601.548 111.757 601.608 110.239 601.628 109.829 601.628 109.42 601.628 109 601.628 108.58 601.628 108.171 601.608 107.761 601.548 106.243 602.447 104.845 603.826 104.205 605.154 103.586 606.483 102.977 607.821 102.357 608.9 101.838 609.31 100.28 608.77 98.8714 608.141 97.2133 607.602 95.5351 607.132 93.8271 606.733 92.3687 605.494 91.3499 604.315 91.5696 602.867 91.8493 601.429 92.139 599.98 92.4286 598.462 92.7283 596.924 92.069 596.055 90.7805 595.625 90.1412 595.176 89.5219 594.706 88.9226 593.747 87.704 593.597 86.0358 594.346 84.6774 595.066 83.3888 595.785 82.1103 596.494 80.8217 597.063 79.7729 596.474 78.2746 595.216 77.4455 593.727 76.4666 592.309 75.4278 590.92 74.319 589.742 73.3801 588.143 73.2802 587.314 74.1492 586.316 75.228 585.317 76.3068 584.318 77.3856 583.259 78.5243 581.631 78.8939 580.172 78.3545 579.453 78.0948 578.724 77.855 577.985 77.6453 576.497 77.2158 575.398 75.9672 575.208 74.4289 575.028 72.9705 574.858 71.5122 574.679 70.0538 574.519 68.8652 573.17 68.0061 571.652 68.076 569.874 68.1659 568.116 68.156 566.338 68.076 564.83 68.0061 563.481 68.8652 563.321 70.0538 563.142 71.5122 562.972 72.9705 562.792 74.4289 562.602 75.9672 561.503 77.2158 560.015 77.6453 559.276 77.855 558.547 78.0948 557.828 78.3545 556.369 78.8939 554.731 78.5243 553.682 77.3856 552.683 76.3068 551.684 75.228 550.686 74.1492 549.857 73.2802 548.258 73.3801 547.08 74.329 545.691 75.4378 544.263 76.4766 542.784 77.4455 541.526 78.2746 540.937 79.7729 541.506 80.8217 542.225 82.1103 542.934 83.3888 543.654 84.6774 544.413 86.0358 544.253 87.694 543.294 88.9226 542.824 89.5219 542.375 90.1412 541.945 90.7805 541.076 92.069 539.548 92.7283 538.02 92.4286 536.571 92.139 535.133 91.8593 533.685 91.5696 532.506 91.3499 531.267 92.3787 530.868 93.8371 530.398 95.5451 529.859 97.2233 529.23 98.8814 528.7 100.29 529.1 101.848 530.179 102.367 531.507 102.987 532.846 103.596 534.174 104.215 535.553 104.855 536.462 106.253 536.392 107.771 536.372 108.181 536.362 108.59 536.362 109.01 536.362 109.43 536.362 109.839 536.392 110.249 536.452 111.767 535.553 113.165 534.174 113.805 532.846 114.424 531.517 115.033 530.179 115.653 529.1 116.172 528.69 117.72 529.23 119.139 529.859 120.797 530.398 122.475 530.868 124.193 531.267 125.641 532.506 126.67 533.685 126.45 535.133 126.161 536.571 125.881 538.02 125.591 539.538 125.292 541.076 125.951 541.945 127.239 542.375 127.879 542.824 128.498 543.294 129.097 544.253 130.316 544.403 131.984 543.654 133.333 542.934 134.621 542.215 135.9 541.506 137.188 540.937 138.237 541.526 139.735 542.784 140.564 544.273 141.533 545.691 142.572 547.08 143.681 548.258 144.63 549.857 144.72 550.686 143.851 551.684 142.772 552.683 141.693 553.682 140.614 554.741 139.476 556.369 139.106 557.828 139.646 558.547 139.905 559.276 140.145 560.015 140.355 561.503 140.784 562.602 142.033 562.792 143.571 562.972 145.029 563.142 146.488 563.321 147.946 563.481 149.135 564.83 149.994 566.348 149.924 568.116 149.844 569.884 149.844 571.652 149.924 573.16 149.994 574.509 149.135 574.669 147.946 574.848 146.488 575.018 145.029 575.198 143.571 575.378 142.033 576.487 140.774 577.975 140.355 578.714 140.145 579.443 139.905 580.152 139.646 581.611 139.106 583.249 139.476 584.308 140.614 585.307 141.693 586.306 142.772 587.304 143.851 588.133 144.72 589.732 144.62 590.91 143.671 592.299 142.562 593.727 141.523 595.206 140.555 596.464 139.725 597.053 138.237 596.484 137.178 595.765 135.89 595.046 134.601 594.336 133.323 593.577 131.964 593.737 130.306 594.696 129.087 595.166 128.488 595.615 127.869 596.045 127.229 596.914 125.941 598.442 125.282 599.97 125.581 601.419 125.871 602.857 126.151 604.305 126.44 605.484 126.65 606.723 125.631 607.122 124.173 607.592 122.465 608.131 120.787 608.76 119.129 609.29 117.72 608.89 116.162 607.811 115.643ZM544.013 98.1722C548.099 88.7528 557.358 82.32 567.597 81.8106L568.026 81.7906 568.026 79.7429 573.5 83.0592 568.026 86.3755 568.026 84.3677 567.726 84.3677C558.457 84.8472 550.076 90.6706 546.37 99.201L545.861 100.38 543.504 99.3509 544.013 98.1722ZM559.356 134.511 558.177 134.002C548.758 129.906 542.335 120.647 541.816 110.408L541.796 109.979 539.758 109.979 543.074 104.515 546.39 109.979 544.383 109.979 544.403 110.279C544.872 119.548 550.686 127.929 559.226 131.635L560.405 132.144 559.376 134.501ZM549.407 109.01C549.407 98.1922 558.187 89.412 569.005 89.412 579.823 89.412 588.603 98.1922 588.603 109.01 588.603 119.828 579.833 128.608 569.005 128.608 558.177 128.608 549.407 119.828 549.407 109.01ZM593.997 119.838C589.842 129.407 580.812 135.68 570.413 136.209L569.984 136.229 569.984 138.277 564.51 134.961 569.984 131.645 569.984 133.652 570.284 133.632C579.553 133.163 587.934 127.339 591.64 118.809L592.149 117.63 594.506 118.659 593.997 119.838ZM594.946 113.505 591.63 108.031 593.637 108.031 593.617 107.741C593.148 98.4718 587.334 90.0913 578.794 86.3854L577.615 85.876 578.644 83.5187 579.823 84.0281C589.242 88.1135 595.665 97.3731 596.184 107.612L596.204 108.031 598.242 108.031 594.926 113.505Z" fill="#1F4573"/></g></svg>