<svg width="88" height="82" xmlns="http://www.w3.org/2000/svg" xmlns:xlink="http://www.w3.org/1999/xlink" xml:space="preserve" overflow="hidden"><defs><clipPath id="clip0"><rect x="764" y="100" width="88" height="82"/></clipPath></defs><g clip-path="url(#clip0)" transform="translate(-764 -100)"><path d="M16.7657 40.5095 12.0432 40.5095C11.2514 40.5095 10.608 41.151 10.608 41.9447L10.608 42.432 8.92724 42.432C8.4114 42.432 7.99454 42.8488 7.99454 43.3647L7.99454 44.0671C3.4072 45.2358-0.00190346 49.3606-0.00190346 54.3134-0.00190346 59.2662 3.40529 63.391 7.99454 64.5597L7.99454 65.2621C7.99454 65.778 8.4114 66.1948 8.92724 66.1948L10.608 66.1948 10.608 66.6821C10.608 67.4739 11.2495 68.1173 12.0432 68.1173L16.7657 68.1173C17.5575 68.1173 18.2009 67.4758 18.2009 66.6821L18.2009 41.9428C18.2009 41.151 17.5594 40.5076 16.7657 40.5076Z" fill="#1B3666" transform="matrix(1.00551 0 0 1 764 100.012)"/><path d="M87.5174 54.3134C87.5174 49.3606 84.1083 45.2358 79.521 44.0671L79.521 43.3647C79.521 42.8488 79.1041 42.432 78.5883 42.432L76.9075 42.432 76.9075 41.9447C76.9075 41.1529 76.2641 40.5095 75.4723 40.5095L70.7498 40.5095C69.958 40.5095 69.3146 41.151 69.3146 41.9447L69.3146 66.684C69.3146 67.4758 69.958 68.1192 70.7498 68.1192L75.4723 68.1192C76.2641 68.1192 76.9075 67.4777 76.9075 66.684L76.9075 66.1967 78.5883 66.1967C79.1041 66.1967 79.521 65.7799 79.521 65.264L79.521 64.5616C84.1083 63.3929 87.5174 59.2681 87.5174 54.3153Z" fill="#1B3666" transform="matrix(1.00551 0 0 1 764 100.012)"/><path d="M43.635 0C22.8948 0 6.08156 16.8133 6.08156 37.5534 6.08156 41.5526 6.7059 45.4052 7.8632 49.018L10.2235 48.3632C9.57061 45.7136 9.22228 42.944 9.22228 40.0926 9.22228 21.0866 24.6289 8.07068 43.635 8.07068 62.641 8.07068 78.0477 21.0885 78.0477 40.0926 78.0477 42.411 77.8193 44.6762 77.3815 46.8671L79.0889 49.9678C80.4498 46.0809 81.1884 41.9047 81.1884 37.5534 81.1903 16.8133 64.3751 0 43.635 0Z" fill="#1B3666" transform="matrix(1.00551 0 0 1 764 100.012)"/><path d="M45.8696 77.8516C45.8696 77.8516 67.8908 81.8793 75.6836 64.6473" stroke="#1B3666" stroke-width="4.32467" stroke-linecap="round" stroke-linejoin="round" fill="none" transform="matrix(1.00551 0 0 1 764 100.012)"/><path d="M47.4952 76.5084C47.4952 80.4022 45.0802 83.5589 42.1012 83.5589 39.1222 83.5589 36.7072 80.4022 36.7072 76.5084 36.7072 72.6145 39.1222 69.4579 42.1012 69.4579 45.0802 69.4579 47.4952 72.6145 47.4952 76.5084Z" fill="#1B3666" transform="matrix(0.226982 -0.973899 0.979269 0.225737 721.843 200.233)"/><path d="M40.5438 24.4443C32.1952 25.8243 25.4017 32.416 23.78 40.7208 22.7102 46.1932 23.8237 51.363 26.3744 55.564 26.5838 55.9104 26.6332 56.3273 26.4924 56.7061L22.518 67.4816C22.379 67.8603 22.7483 68.2277 23.1271 68.085L34.6678 63.7165C34.9933 63.5928 35.3492 63.6099 35.6671 63.7527 39.415 65.4296 43.7321 66.0578 48.2832 65.1327 56.6585 63.431 63.2787 56.5119 64.5445 48.0586 66.6497 34.0111 54.6275 22.1163 40.5457 24.4443Z" fill="#1F9DDB" transform="matrix(1.00551 0 0 1 764 100.012)"/><path d="M38.4404 56.1559C38.5603 54.163 39.0819 52.33 39.6644 50.5141 40.5628 47.7141 41.4726 44.9179 42.3768 42.1198 42.4586 41.8705 42.55 41.6211 42.5481 41.3546 42.5424 40.7722 42.1826 40.5476 41.6649 40.8121 41.2614 41.0177 40.9492 41.3413 40.6808 41.6953 40.1745 42.3635 39.691 43.0506 39.1961 43.7263 39.061 43.911 38.922 44.0975 38.7659 44.265 38.6251 44.4192 38.4804 44.6153 38.2253 44.4801 37.9798 44.3488 37.8751 44.1223 37.9265 43.8596 37.9722 43.6388 38.0445 43.4085 38.1606 43.2162 39.2589 41.4384 40.519 39.8052 42.3254 38.6784 43.279 38.0826 44.3164 37.7342 45.4509 37.7571 46.6767 37.7818 47.4781 38.4956 47.697 39.7024 47.8854 40.736 47.716 41.741 47.4267 42.7213 46.4293 46.0923 45.4071 49.4539 44.3926 52.8211 44.246 53.3103 44.1013 53.7976 44.1013 54.3153 44.1013 54.5342 44.1242 54.7626 44.3297 54.8825 44.5563 55.0158 44.7809 54.9149 44.975 54.7817 45.4414 54.46 45.7916 54.0203 46.1342 53.5787 46.6691 52.8896 47.1849 52.1891 47.7198 51.5001 47.834 51.3535 47.9558 51.1403 48.1938 51.2374 48.4336 51.3345 48.5078 51.5648 48.5174 51.8046 48.5288 52.0749 48.4412 52.3262 48.3137 52.5584 46.9679 54.9967 45.114 56.923 42.6052 58.1755 42.0266 58.4649 41.3965 58.5905 40.7493 58.6305 39.5292 58.7066 38.6517 57.9833 38.4975 56.7727 38.469 56.5443 38.4538 56.3158 38.4385 56.1559Z" fill="#FFFFFF" transform="matrix(1.00551 0 0 1 764 100.012)"/><path d="M49.5795 33.0936C49.5795 34.8513 48.1546 36.2762 46.3969 36.2762 44.6392 36.2762 43.2143 34.8513 43.2143 33.0936 43.2143 31.3359 44.6392 29.911 46.3969 29.911 48.1546 29.911 49.5795 31.3359 49.5795 33.0936Z" fill="#FFFFFF" transform="matrix(1.00551 0 0 1 764 100.012)"/></g></svg>