<svg width="82" height="82" xmlns="http://www.w3.org/2000/svg" xmlns:xlink="http://www.w3.org/1999/xlink" xml:space="preserve" overflow="hidden"><defs><clipPath id="clip0"><rect x="883" y="258" width="82" height="82"/></clipPath></defs><g clip-path="url(#clip0)" transform="translate(-883 -258)"><path d="M893.34 288.61 909.11 302.69C908.75 301.18 908.94 299.54 909.78 298.1 910.59 296.7 911.91 295.68 913.43 295.23L893.35 288.61Z" fill="#00B2DD"/><path d="M921.35 299.79C921.73 301.36 921.5 302.99 920.68 304.4 919.87 305.81 918.54 306.83 917.01 307.28L937.17 313.92 921.34 299.79Z" fill="#00B2DD"/><path d="M918.95 303.4C920.14 301.34 919.43 298.71 917.38 297.52 915.32 296.33 912.69 297.04 911.5 299.09 910.31 301.15 911.02 303.78 913.07 304.97 915.13 306.16 917.76 305.45 918.95 303.4Z" fill="#1F4573"/><path d="M940.78 267.52 888.62 267.52C885.51 267.52 883 270.04 883 273.14L883 334.38C883 337.49 885.52 340 888.62 340L940.77 340C943.88 340 946.39 337.48 946.39 334.38L946.39 273.14C946.39 270.03 943.87 267.52 940.77 267.52ZM888.62 337.5C886.9 337.5 885.5 336.1 885.5 334.38L885.5 273.14C885.5 271.42 886.9 270.02 888.62 270.02L940.77 270.02C942.49 270.02 943.89 271.42 943.89 273.14L943.89 334.38C943.89 336.1 942.49 337.5 940.77 337.5L888.62 337.5Z" fill="#1F4573"/><path d="M914.7 258C912.08 258 909.94 260.13 909.94 262.76 909.94 265.39 912.07 267.52 914.7 267.52 917.33 267.52 919.46 265.39 919.46 262.76 919.46 260.13 917.33 258 914.7 258ZM914.7 265.02C913.45 265.02 912.44 264.01 912.44 262.76 912.44 261.51 913.45 260.5 914.7 260.5 915.95 260.5 916.96 261.51 916.96 262.76 916.96 264.01 915.95 265.02 914.7 265.02Z" fill="#00B2DD"/><path d="M928.22 270.02 901.18 270.02C899.8 270.02 898.68 268.9 898.68 267.52 898.68 266.14 899.8 265.02 901.18 265.02L928.22 265.02C929.6 265.02 930.72 266.14 930.72 267.52 930.72 268.9 929.6 270.02 928.22 270.02Z" fill="#00B2DD"/><path d="M902.72 277.11 926.69 277.11 926.69 279.11 902.72 279.11Z" fill="#1F4573"/><path d="M955.99 265 955.99 261.79C955.99 259.7 957.69 258 959.78 258 961.87 258 963.57 259.7 963.57 261.79L963.57 265 956 265ZM954.56 325.28C954.56 328.16 956.9 334.43 959.78 334.43 962.66 334.43 965 328.16 965 325.28L954.56 325.28ZM965 322.78 965 267.5 954.56 267.5 954.56 322.78 965 322.78ZM961.94 270.5 961.94 298.85C961.94 300.05 960.97 302.64 959.78 302.64 958.59 302.64 957.62 300.04 957.62 298.85L957.62 270.5 961.95 270.5ZM960.78 335.92 958.78 335.92 958.78 340 960.78 340 960.78 335.92Z" fill="#1F4573"/><path d="M892.59 322.87 936.82 322.87 936.82 324.87 892.59 324.87Z" fill="#1F4573"/><path d="M892.59 328.83 936.82 328.83 936.82 330.83 892.59 330.83Z" fill="#1F4573"/><path d="M915.2 293.71C916.04 293.71 916.89 293.83 917.73 294.12 917.81 294.15 917.88 294.18 917.96 294.21L917.92 294.04 918.23 294.32C918.8 294.56 919.33 294.87 919.81 295.23L920.06 295.31 919.95 295.34C920.72 295.95 921.35 296.7 921.83 297.53L929.17 304.08C929.17 304.08 929.25 304.05 929.29 304.05 929.88 303.99 930.48 303.93 931.07 303.87 931.55 303.81 931.92 303.27 931.9 302.66 931.88 301.94 931.9 301.22 931.94 300.5 931.98 299.89 931.64 299.33 931.16 299.25 930.57 299.17 929.97 299.08 929.38 299 928.76 298.91 928.25 298.45 928.09 297.84 928.01 297.54 927.92 297.24 927.82 296.95 927.62 296.35 927.78 295.69 928.25 295.27 928.7 294.87 929.14 294.47 929.59 294.07 929.95 293.74 929.92 293.09 929.55 292.6 929.11 292.03 928.7 291.44 928.31 290.83 927.98 290.31 927.38 290.06 926.95 290.28 926.42 290.56 925.89 290.84 925.37 291.12 924.81 291.42 924.14 291.34 923.65 290.94 923.41 290.74 923.16 290.56 922.91 290.38 922.39 290.02 922.14 289.39 922.27 288.77 922.4 288.18 922.52 287.6 922.65 287.02 922.75 286.54 922.34 286.03 921.75 285.86 921.06 285.66 920.38 285.42 919.71 285.15 919.14 284.92 918.5 285.07 918.28 285.51 918.02 286.05 917.76 286.59 917.49 287.12 917.21 287.69 916.62 288.02 915.99 287.99 915.68 287.97 915.37 287.97 915.06 287.97 914.43 287.98 913.85 287.62 913.59 287.04 913.35 286.49 913.11 285.94 912.87 285.4 912.67 284.96 912.04 284.78 911.46 284.99 910.78 285.23 910.09 285.44 909.39 285.62 908.79 285.77 908.37 286.27 908.45 286.75 908.55 287.34 908.66 287.93 908.76 288.52 908.87 289.14 908.59 289.76 908.06 290.1 907.8 290.27 907.54 290.45 907.29 290.63 907.12 290.76 906.92 290.84 906.72 290.89L915.21 293.69Z" fill="#1F4573"/><path d="M915.31 308.82C914.47 308.82 913.62 308.7 912.78 308.41 912.68 308.37 912.58 308.33 912.48 308.29L912.51 308.41 912.29 308.21C911.72 307.97 911.19 307.66 910.71 307.3L910.35 307.18 910.51 307.13C909.77 306.53 909.16 305.8 908.7 304.99L901.36 298.43C901.36 298.43 901.28 298.46 901.24 298.46 900.65 298.52 900.05 298.58 899.46 298.64 898.98 298.7 898.61 299.24 898.63 299.85 898.65 300.57 898.63 301.29 898.59 302.01 898.55 302.62 898.89 303.18 899.37 303.26 899.96 303.34 900.56 303.43 901.15 303.51 901.77 303.6 902.28 304.06 902.44 304.67 902.52 304.97 902.61 305.27 902.71 305.56 902.91 306.16 902.75 306.82 902.28 307.24 901.83 307.64 901.39 308.04 900.94 308.44 900.58 308.77 900.61 309.42 900.98 309.91 901.42 310.48 901.83 311.07 902.22 311.68 902.55 312.2 903.15 312.45 903.58 312.23 904.11 311.95 904.64 311.67 905.16 311.39 905.72 311.09 906.39 311.17 906.89 311.57 907.13 311.77 907.38 311.95 907.63 312.13 908.15 312.49 908.4 313.12 908.27 313.74 908.14 314.32 908.02 314.91 907.89 315.49 907.79 315.97 908.2 316.48 908.79 316.65 909.48 316.85 910.16 317.09 910.83 317.36 911.4 317.59 912.04 317.44 912.26 317 912.52 316.46 912.78 315.93 913.05 315.39 913.33 314.82 913.92 314.49 914.55 314.52 914.86 314.54 915.17 314.54 915.48 314.54 916.11 314.53 916.69 314.89 916.95 315.47 917.19 316.02 917.43 316.57 917.67 317.11 917.87 317.55 918.5 317.73 919.08 317.52 919.76 317.28 920.45 317.07 921.15 316.89 921.75 316.74 922.17 316.24 922.09 315.76 921.99 315.17 921.88 314.58 921.78 313.99 921.67 313.37 921.95 312.75 922.48 312.41 922.74 312.24 923 312.06 923.25 311.88 923.42 311.75 923.62 311.67 923.82 311.62L915.33 308.82Z" fill="#1F4573"/></g></svg>