<svg width="59" height="64" xmlns="http://www.w3.org/2000/svg" xmlns:xlink="http://www.w3.org/1999/xlink" xml:space="preserve" overflow="hidden"><defs><clipPath id="clip0"><rect x="253" y="92" width="59" height="64"/></clipPath></defs><g clip-path="url(#clip0)" transform="translate(-253 -92)"><path d="M52.1953 37.6652 39.8027 37.6652C39.2592 37.6652 38.8173 37.2246 38.8173 36.6798L38.8173 16.9036C38.8173 16.3601 38.3768 15.9182 37.832 15.9182L0.985357 15.9182C0.441847 15.9182 0 16.3588 0 16.9036L0 53.5456C0 54.0891 0.440543 54.5309 0.985357 54.5309L57.0843 54.5309C57.6278 54.5309 58.0696 54.0904 58.0696 53.5456L58.0696 42.8657C58.0696 42.5789 57.9445 42.3065 57.7281 42.1201L52.8391 37.9037C52.6606 37.7499 52.4325 37.6652 52.1966 37.6652Z" fill="#1B3666" transform="matrix(1.01489 0 0 1 253.034 92)"/><path d="M52.0675 39.6567 47.026 27.3984 37.3002 27.3984" stroke="#1B3666" stroke-width="3.41356" stroke-linecap="round" stroke-linejoin="round" fill="none" transform="matrix(1.01489 0 0 1 253.034 92)"/><path d="M44.8937 48.1391C40.5209 48.1391 36.9639 51.6974 36.9639 56.0702 36.9639 60.4431 40.5209 64 44.8937 64 49.2666 64 52.8235 60.4431 52.8235 56.0702 52.8235 51.6974 49.2666 48.1391 44.8937 48.1391Z" fill="#FFFFFF" transform="matrix(1.01489 0 0 1 253.034 92)"/><path d="M51.279 44.4245 52.2682 44.4245" stroke="#FFFFFF" stroke-width="3.41356" stroke-linecap="round" stroke-linejoin="round" fill="none" transform="matrix(1.01489 0 0 1 253.034 92)"/><path d="M50.421 56.483C50.421 59.3531 48.0943 61.6798 45.2242 61.6798 42.3541 61.6798 40.0275 59.3531 40.0275 56.483 40.0275 53.6129 42.3541 51.2863 45.2242 51.2863 48.0943 51.2863 50.421 53.6129 50.421 56.483Z" fill="#1B3666" transform="matrix(0.71239 -0.701939 0.71239 0.701939 226.141 140.167)"/><path d="M14.0374 48.1391C9.66458 48.1391 6.10765 51.6974 6.10765 56.0702 6.10765 60.4431 9.66458 64 14.0374 64 18.4103 64 21.9672 60.4431 21.9672 56.0702 21.9672 51.6974 18.4103 48.1391 14.0374 48.1391Z" fill="#FFFFFF" transform="matrix(1.01489 0 0 1 253.034 92)"/><path d="M19.2101 56.1146C19.2101 58.966 16.8986 61.2774 14.0472 61.2774 11.1959 61.2774 8.88436 58.966 8.88436 56.1146 8.88436 53.2632 11.1959 50.9517 14.0472 50.9517 16.8986 50.9517 19.2101 53.2632 19.2101 56.1146Z" fill="#1B3666" transform="matrix(0.232946 -0.97249 0.986969 0.229528 208.624 148.848)"/><path d="M17.7299 38.163C16.2076 38.163 14.8064 37.2807 14.1599 35.9134L9.7493 26.5317C5.72055 23.8662 3.26237 19.3435 3.26237 14.4662 3.26367 6.48954 9.75321 0 17.7299 0 25.7066 0 32.1975 6.48954 32.1975 14.4675 32.1975 19.3448 29.7393 23.8675 25.7105 26.533L21.3012 35.9082C20.6573 37.2767 19.2562 38.163 17.7338 38.163 17.7325 38.163 17.7312 38.163 17.7286 38.163Z" fill="#FFFFFF" transform="matrix(1.01489 0 0 1 253.034 92)"/><path d="M28.7774 14.4675C28.7774 8.36641 23.831 3.42138 17.7312 3.42138 11.6314 3.42138 6.68375 8.36641 6.68375 14.4675 6.68375 18.6384 8.99595 22.2657 12.4082 24.1465L17.2529 34.4523C17.4354 34.8407 18.0245 34.8407 18.207 34.4523L23.0529 24.1465C26.4639 22.267 28.7774 18.6384 28.7774 14.4675Z" fill="#1F9DDB" transform="matrix(1.01489 0 0 1 253.034 92)"/><path d="M23.8936 14.4675C23.8936 17.8717 21.134 20.6312 17.7299 20.6312 14.3258 20.6312 11.5662 17.8717 11.5662 14.4675 11.5662 11.0634 14.3258 8.30385 17.7299 8.30385 21.134 8.30385 23.8936 11.0634 23.8936 14.4675Z" fill="#FFFFFF" transform="matrix(1.01489 0 0 1 253.034 92)"/></g></svg>