<svg width="88" height="82" xmlns="http://www.w3.org/2000/svg" xmlns:xlink="http://www.w3.org/1999/xlink" xml:space="preserve" overflow="hidden"><defs><clipPath id="clip0"><rect x="485" y="573" width="88" height="82"/></clipPath></defs><g clip-path="url(#clip0)" transform="translate(-485 -573)"><path d="M507.5 573 507.5 638.03 528 655 528 589.97 507.5 573ZM515.23 582C515.45 586.82 516.9 599.71 526 603.55L526 643.87C524.39 639.73 521.59 636.95 517.41 636.95 517.41 631.95 514.46 624.18 509.5 621.15L509.5 577.25 515.23 582Z" fill="#00B2DD"/><path d="M485 589.97 485 655 505.5 638.03 505.5 573 485 589.97ZM487 614.76 487 606.11C491.24 601.72 494.05 594.43 493.27 585.72L498.73 581.2C500.44 595.43 495.54 608.06 487.01 614.75ZM503.5 637.1 497.79 641.82C497.26 637.09 496.91 626.35 503.5 621.51L503.5 637.1Z" fill="#1F4573"/><path d="M552.5 573 552.5 638.03 573 655 573 589.97 552.5 573ZM571 650.75 554.5 637.1 554.5 629.2 571 643.18 571 650.76ZM554.5 623.03 554.5 597.74C558.54 597.25 559.47 594.36 561.18 593.18 564.79 594.99 568.51 594.51 571 592.67L571 636.84 554.5 623.03Z" fill="#00B2DD"/><path d="M530 589.97 530 655 550.5 638.03 550.5 573 530 589.97ZM548.5 628.11C541.99 630.79 541.34 638.93 541.43 642.95L535.95 647.48C535.4 641.68 535.35 626.78 548.49 621.99L548.49 628.11ZM548.5 596.58C545.29 593.38 545.46 585.87 540.25 587.4 540.76 589.97 539.92 594.4 534.57 594.45 535.28 596.21 535.67 600.17 532 602.57L532 590.9 548.5 577.24 548.5 596.57Z" fill="#1F4573"/></g></svg>